# xmcd
# 
# Track frame offsets:
#     182
#     13142
#     26835
#     40492
#     52527
#     64677
#     77622
#     89432
#     99495
#     110597
#     122422
#     132835
# 
# Disc length: 1913
# 
# Revision: 4
# Processed by: cddbd v1.5.2PL0 Copyright (c) Steve Scherf et al.
# Submitted via: fre:ac v1.1beta1pre3
# 
DISCID=9307770c
DTITLE=Robert Johnson The legendary bluessingers - The Legendary Blues Singer
DYEAR=1992
DGENRE=Blues
TTITLE0=Kindhearted woman blues
TTITLE1=Sweet home Chicago
TTITLE2=Terraplane blues
TTITLE3=Phonograph blues
TTITLE4=Cross road blues
TTITLE5=Preaching blues (up jumped the Devil)
TTITLE6=I'm a steady rollin' man
TTITLE7=Little queen of spades
TTITLE8=Drunken hearted man
TTITLE9=Me and the Devil blues
TTITLE10=Stop breakin' down blues
TTITLE11=Love in vain
EXTD=
EXTT0=
EXTT1=
EXTT2=
EXTT3=
EXTT4=
EXTT5=
EXTT6=
EXTT7=
EXTT8=
EXTT9=
EXTT10=
EXTT11=
PLAYORDER=
